<mxfile host="app.diagrams.net" agent="Mozilla/5.0 (Windows NT 10.0; Win64; x64) AppleWebKit/537.36 (KHTML, like Gecko) Chrome/130.0.0.0 Safari/537.36" version="24.8.4">
  <diagram id="C5RBs43oDa-KdzZeNtuy" name="Page-1">
    <mxGraphModel dx="1621" dy="412" grid="1" gridSize="10" guides="1" tooltips="1" connect="1" arrows="1" fold="1" page="1" pageScale="1" pageWidth="827" pageHeight="1169" math="0" shadow="0">
      <root>
        <mxCell id="WIyWlLk6GJQsqaUBKTNV-0" />
        <mxCell id="WIyWlLk6GJQsqaUBKTNV-1" parent="WIyWlLk6GJQsqaUBKTNV-0" />
        <mxCell id="WIyWlLk6GJQsqaUBKTNV-2" value="" style="rounded=0;html=1;jettySize=auto;orthogonalLoop=1;fontSize=11;endArrow=block;endFill=0;endSize=8;strokeWidth=1;shadow=0;labelBackgroundColor=none;edgeStyle=orthogonalEdgeStyle;" parent="WIyWlLk6GJQsqaUBKTNV-1" source="WIyWlLk6GJQsqaUBKTNV-3" target="WIyWlLk6GJQsqaUBKTNV-6" edge="1">
          <mxGeometry relative="1" as="geometry" />
        </mxCell>
        <mxCell id="WIyWlLk6GJQsqaUBKTNV-3" value="Lamp doesn&#39;t work" style="rounded=1;whiteSpace=wrap;html=1;fontSize=12;glass=0;strokeWidth=1;shadow=0;" parent="WIyWlLk6GJQsqaUBKTNV-1" vertex="1">
          <mxGeometry x="160" y="80" width="120" height="40" as="geometry" />
        </mxCell>
        <mxCell id="WIyWlLk6GJQsqaUBKTNV-4" value="Yes" style="rounded=0;html=1;jettySize=auto;orthogonalLoop=1;fontSize=11;endArrow=block;endFill=0;endSize=8;strokeWidth=1;shadow=0;labelBackgroundColor=none;edgeStyle=orthogonalEdgeStyle;" parent="WIyWlLk6GJQsqaUBKTNV-1" source="WIyWlLk6GJQsqaUBKTNV-6" target="WIyWlLk6GJQsqaUBKTNV-10" edge="1">
          <mxGeometry y="20" relative="1" as="geometry">
            <mxPoint as="offset" />
          </mxGeometry>
        </mxCell>
        <mxCell id="WIyWlLk6GJQsqaUBKTNV-5" value="No" style="edgeStyle=orthogonalEdgeStyle;rounded=0;html=1;jettySize=auto;orthogonalLoop=1;fontSize=11;endArrow=block;endFill=0;endSize=8;strokeWidth=1;shadow=0;labelBackgroundColor=none;" parent="WIyWlLk6GJQsqaUBKTNV-1" source="WIyWlLk6GJQsqaUBKTNV-6" target="WIyWlLk6GJQsqaUBKTNV-7" edge="1">
          <mxGeometry y="10" relative="1" as="geometry">
            <mxPoint as="offset" />
          </mxGeometry>
        </mxCell>
        <mxCell id="WIyWlLk6GJQsqaUBKTNV-6" value="Lamp&lt;br&gt;plugged in?" style="rhombus;whiteSpace=wrap;html=1;shadow=0;fontFamily=Helvetica;fontSize=12;align=center;strokeWidth=1;spacing=6;spacingTop=-4;" parent="WIyWlLk6GJQsqaUBKTNV-1" vertex="1">
          <mxGeometry x="170" y="170" width="100" height="80" as="geometry" />
        </mxCell>
        <mxCell id="WIyWlLk6GJQsqaUBKTNV-7" value="Plug in lamp" style="rounded=1;whiteSpace=wrap;html=1;fontSize=12;glass=0;strokeWidth=1;shadow=0;" parent="WIyWlLk6GJQsqaUBKTNV-1" vertex="1">
          <mxGeometry x="320" y="190" width="120" height="40" as="geometry" />
        </mxCell>
        <mxCell id="WIyWlLk6GJQsqaUBKTNV-8" value="No" style="rounded=0;html=1;jettySize=auto;orthogonalLoop=1;fontSize=11;endArrow=block;endFill=0;endSize=8;strokeWidth=1;shadow=0;labelBackgroundColor=none;edgeStyle=orthogonalEdgeStyle;" parent="WIyWlLk6GJQsqaUBKTNV-1" source="WIyWlLk6GJQsqaUBKTNV-10" target="WIyWlLk6GJQsqaUBKTNV-11" edge="1">
          <mxGeometry x="0.3333" y="20" relative="1" as="geometry">
            <mxPoint as="offset" />
          </mxGeometry>
        </mxCell>
        <mxCell id="WIyWlLk6GJQsqaUBKTNV-9" value="Yes" style="edgeStyle=orthogonalEdgeStyle;rounded=0;html=1;jettySize=auto;orthogonalLoop=1;fontSize=11;endArrow=block;endFill=0;endSize=8;strokeWidth=1;shadow=0;labelBackgroundColor=none;" parent="WIyWlLk6GJQsqaUBKTNV-1" source="WIyWlLk6GJQsqaUBKTNV-10" target="WIyWlLk6GJQsqaUBKTNV-12" edge="1">
          <mxGeometry y="10" relative="1" as="geometry">
            <mxPoint as="offset" />
          </mxGeometry>
        </mxCell>
        <mxCell id="WIyWlLk6GJQsqaUBKTNV-10" value="Bulb&lt;br&gt;burned out?" style="rhombus;whiteSpace=wrap;html=1;shadow=0;fontFamily=Helvetica;fontSize=12;align=center;strokeWidth=1;spacing=6;spacingTop=-4;" parent="WIyWlLk6GJQsqaUBKTNV-1" vertex="1">
          <mxGeometry x="170" y="290" width="100" height="80" as="geometry" />
        </mxCell>
        <mxCell id="WIyWlLk6GJQsqaUBKTNV-11" value="Repair Lamp" style="rounded=1;whiteSpace=wrap;html=1;fontSize=12;glass=0;strokeWidth=1;shadow=0;" parent="WIyWlLk6GJQsqaUBKTNV-1" vertex="1">
          <mxGeometry x="160" y="430" width="120" height="40" as="geometry" />
        </mxCell>
        <mxCell id="WIyWlLk6GJQsqaUBKTNV-12" value="Replace Bulb" style="rounded=1;whiteSpace=wrap;html=1;fontSize=12;glass=0;strokeWidth=1;shadow=0;" parent="WIyWlLk6GJQsqaUBKTNV-1" vertex="1">
          <mxGeometry x="320" y="310" width="120" height="40" as="geometry" />
        </mxCell>
        <mxCell id="YqYcUAopvHvmNUxCHAHt-0" value="" style="rounded=0;html=1;jettySize=auto;orthogonalLoop=1;fontSize=11;endArrow=block;endFill=0;endSize=8;strokeWidth=1;shadow=0;labelBackgroundColor=none;edgeStyle=orthogonalEdgeStyle;" edge="1" parent="WIyWlLk6GJQsqaUBKTNV-1" source="YqYcUAopvHvmNUxCHAHt-1" target="YqYcUAopvHvmNUxCHAHt-4">
          <mxGeometry relative="1" as="geometry" />
        </mxCell>
        <mxCell id="YqYcUAopvHvmNUxCHAHt-1" value="1052：个人开户" style="rounded=1;whiteSpace=wrap;html=1;fontSize=12;glass=0;strokeWidth=1;shadow=0;" vertex="1" parent="WIyWlLk6GJQsqaUBKTNV-1">
          <mxGeometry x="160" y="80" width="120" height="40" as="geometry" />
        </mxCell>
        <mxCell id="YqYcUAopvHvmNUxCHAHt-2" value="Yes" style="rounded=0;html=1;jettySize=auto;orthogonalLoop=1;fontSize=11;endArrow=block;endFill=0;endSize=8;strokeWidth=1;shadow=0;labelBackgroundColor=none;edgeStyle=orthogonalEdgeStyle;" edge="1" parent="WIyWlLk6GJQsqaUBKTNV-1" source="YqYcUAopvHvmNUxCHAHt-4">
          <mxGeometry y="20" relative="1" as="geometry">
            <mxPoint as="offset" />
            <mxPoint x="220" y="380" as="targetPoint" />
          </mxGeometry>
        </mxCell>
        <mxCell id="YqYcUAopvHvmNUxCHAHt-3" value="No" style="edgeStyle=orthogonalEdgeStyle;rounded=0;html=1;jettySize=auto;orthogonalLoop=1;fontSize=11;endArrow=block;endFill=0;endSize=8;strokeWidth=1;shadow=0;labelBackgroundColor=none;" edge="1" parent="WIyWlLk6GJQsqaUBKTNV-1" source="YqYcUAopvHvmNUxCHAHt-4" target="YqYcUAopvHvmNUxCHAHt-6">
          <mxGeometry y="10" relative="1" as="geometry">
            <mxPoint as="offset" />
          </mxGeometry>
        </mxCell>
        <mxCell id="YqYcUAopvHvmNUxCHAHt-4" value="已有客户信息" style="rhombus;whiteSpace=wrap;html=1;shadow=0;fontFamily=Helvetica;fontSize=12;align=center;strokeWidth=1;spacing=6;spacingTop=-4;" vertex="1" parent="WIyWlLk6GJQsqaUBKTNV-1">
          <mxGeometry x="170" y="170" width="100" height="80" as="geometry" />
        </mxCell>
        <mxCell id="YqYcUAopvHvmNUxCHAHt-5" style="edgeStyle=orthogonalEdgeStyle;rounded=0;orthogonalLoop=1;jettySize=auto;html=1;exitX=1;exitY=0.5;exitDx=0;exitDy=0;" edge="1" parent="WIyWlLk6GJQsqaUBKTNV-1" source="YqYcUAopvHvmNUxCHAHt-6" target="YqYcUAopvHvmNUxCHAHt-12">
          <mxGeometry relative="1" as="geometry" />
        </mxCell>
        <mxCell id="YqYcUAopvHvmNUxCHAHt-6" value="0120：客户信息维护" style="rounded=1;whiteSpace=wrap;html=1;fontSize=12;glass=0;strokeWidth=1;shadow=0;" vertex="1" parent="WIyWlLk6GJQsqaUBKTNV-1">
          <mxGeometry x="320" y="190" width="120" height="40" as="geometry" />
        </mxCell>
        <mxCell id="YqYcUAopvHvmNUxCHAHt-7" style="edgeStyle=orthogonalEdgeStyle;rounded=0;orthogonalLoop=1;jettySize=auto;html=1;entryX=0.5;entryY=0;entryDx=0;entryDy=0;" edge="1" parent="WIyWlLk6GJQsqaUBKTNV-1" source="YqYcUAopvHvmNUxCHAHt-8" target="YqYcUAopvHvmNUxCHAHt-22">
          <mxGeometry relative="1" as="geometry" />
        </mxCell>
        <mxCell id="YqYcUAopvHvmNUxCHAHt-8" value="上传影像平台" style="rounded=1;whiteSpace=wrap;html=1;fontSize=12;glass=0;strokeWidth=1;shadow=0;" vertex="1" parent="WIyWlLk6GJQsqaUBKTNV-1">
          <mxGeometry x="870" y="190" width="120" height="40" as="geometry" />
        </mxCell>
        <mxCell id="YqYcUAopvHvmNUxCHAHt-9" style="edgeStyle=orthogonalEdgeStyle;rounded=0;orthogonalLoop=1;jettySize=auto;html=1;exitX=0.5;exitY=1;exitDx=0;exitDy=0;entryX=0.5;entryY=0;entryDx=0;entryDy=0;" edge="1" parent="WIyWlLk6GJQsqaUBKTNV-1" source="YqYcUAopvHvmNUxCHAHt-10" target="YqYcUAopvHvmNUxCHAHt-40">
          <mxGeometry relative="1" as="geometry" />
        </mxCell>
        <mxCell id="YqYcUAopvHvmNUxCHAHt-10" value="填写开户信息：开户类型" style="rounded=1;whiteSpace=wrap;html=1;fontSize=12;glass=0;strokeWidth=1;shadow=0;" vertex="1" parent="WIyWlLk6GJQsqaUBKTNV-1">
          <mxGeometry x="160" y="381" width="120" height="40" as="geometry" />
        </mxCell>
        <mxCell id="YqYcUAopvHvmNUxCHAHt-11" style="edgeStyle=orthogonalEdgeStyle;rounded=0;orthogonalLoop=1;jettySize=auto;html=1;exitX=1;exitY=0.5;exitDx=0;exitDy=0;entryX=0;entryY=0.5;entryDx=0;entryDy=0;" edge="1" parent="WIyWlLk6GJQsqaUBKTNV-1" source="YqYcUAopvHvmNUxCHAHt-12" target="YqYcUAopvHvmNUxCHAHt-14">
          <mxGeometry relative="1" as="geometry" />
        </mxCell>
        <mxCell id="YqYcUAopvHvmNUxCHAHt-12" value="联网核查通过" style="rhombus;whiteSpace=wrap;html=1;" vertex="1" parent="WIyWlLk6GJQsqaUBKTNV-1">
          <mxGeometry x="500" y="170" width="80" height="80" as="geometry" />
        </mxCell>
        <mxCell id="YqYcUAopvHvmNUxCHAHt-13" style="edgeStyle=orthogonalEdgeStyle;rounded=0;orthogonalLoop=1;jettySize=auto;html=1;exitX=1;exitY=0.5;exitDx=0;exitDy=0;entryX=0;entryY=0.5;entryDx=0;entryDy=0;" edge="1" parent="WIyWlLk6GJQsqaUBKTNV-1" source="YqYcUAopvHvmNUxCHAHt-14" target="YqYcUAopvHvmNUxCHAHt-16">
          <mxGeometry relative="1" as="geometry" />
        </mxCell>
        <mxCell id="YqYcUAopvHvmNUxCHAHt-14" value="人脸识别" style="rhombus;whiteSpace=wrap;html=1;" vertex="1" parent="WIyWlLk6GJQsqaUBKTNV-1">
          <mxGeometry x="620" y="170" width="80" height="80" as="geometry" />
        </mxCell>
        <mxCell id="YqYcUAopvHvmNUxCHAHt-15" style="edgeStyle=orthogonalEdgeStyle;rounded=0;orthogonalLoop=1;jettySize=auto;html=1;" edge="1" parent="WIyWlLk6GJQsqaUBKTNV-1" source="YqYcUAopvHvmNUxCHAHt-16" target="YqYcUAopvHvmNUxCHAHt-8">
          <mxGeometry relative="1" as="geometry" />
        </mxCell>
        <mxCell id="YqYcUAopvHvmNUxCHAHt-16" value="手机实名认证" style="rhombus;whiteSpace=wrap;html=1;" vertex="1" parent="WIyWlLk6GJQsqaUBKTNV-1">
          <mxGeometry x="747" y="170" width="80" height="80" as="geometry" />
        </mxCell>
        <mxCell id="YqYcUAopvHvmNUxCHAHt-17" value="数据组：ECIF系统" style="rounded=0;whiteSpace=wrap;html=1;" vertex="1" parent="WIyWlLk6GJQsqaUBKTNV-1">
          <mxGeometry x="320" y="90" width="120" height="60" as="geometry" />
        </mxCell>
        <mxCell id="YqYcUAopvHvmNUxCHAHt-18" value="第三方接口" style="rounded=0;whiteSpace=wrap;html=1;" vertex="1" parent="WIyWlLk6GJQsqaUBKTNV-1">
          <mxGeometry x="600" y="90" width="120" height="30" as="geometry" />
        </mxCell>
        <mxCell id="YqYcUAopvHvmNUxCHAHt-19" value="核心：卡、折、存单（客户账号）一对一、一对多&lt;br&gt;内部账号，不对外，做关联与其他系统" style="rounded=0;whiteSpace=wrap;html=1;" vertex="1" parent="WIyWlLk6GJQsqaUBKTNV-1">
          <mxGeometry x="414" y="570" width="230" height="30" as="geometry" />
        </mxCell>
        <mxCell id="YqYcUAopvHvmNUxCHAHt-20" style="edgeStyle=orthogonalEdgeStyle;rounded=0;orthogonalLoop=1;jettySize=auto;html=1;entryX=0.5;entryY=1;entryDx=0;entryDy=0;" edge="1" parent="WIyWlLk6GJQsqaUBKTNV-1" source="YqYcUAopvHvmNUxCHAHt-22" target="YqYcUAopvHvmNUxCHAHt-6">
          <mxGeometry relative="1" as="geometry" />
        </mxCell>
        <mxCell id="YqYcUAopvHvmNUxCHAHt-21" style="edgeStyle=orthogonalEdgeStyle;rounded=0;orthogonalLoop=1;jettySize=auto;html=1;exitX=0.5;exitY=1;exitDx=0;exitDy=0;entryX=1;entryY=0.25;entryDx=0;entryDy=0;" edge="1" parent="WIyWlLk6GJQsqaUBKTNV-1" source="YqYcUAopvHvmNUxCHAHt-22" target="YqYcUAopvHvmNUxCHAHt-52">
          <mxGeometry relative="1" as="geometry">
            <mxPoint x="400" y="530" as="targetPoint" />
          </mxGeometry>
        </mxCell>
        <mxCell id="YqYcUAopvHvmNUxCHAHt-22" value="集中作业中心审核" style="rhombus;whiteSpace=wrap;html=1;" vertex="1" parent="WIyWlLk6GJQsqaUBKTNV-1">
          <mxGeometry x="875" y="270" width="110" height="80" as="geometry" />
        </mxCell>
        <mxCell id="YqYcUAopvHvmNUxCHAHt-23" value="审核不通过" style="text;html=1;align=center;verticalAlign=middle;resizable=0;points=[];autosize=1;" vertex="1" parent="WIyWlLk6GJQsqaUBKTNV-1">
          <mxGeometry x="611" y="299" width="80" height="20" as="geometry" />
        </mxCell>
        <mxCell id="YqYcUAopvHvmNUxCHAHt-24" value="审核通过" style="text;html=1;align=center;verticalAlign=middle;resizable=0;points=[];autosize=1;" vertex="1" parent="WIyWlLk6GJQsqaUBKTNV-1">
          <mxGeometry x="757" y="403" width="60" height="20" as="geometry" />
        </mxCell>
        <mxCell id="YqYcUAopvHvmNUxCHAHt-25" style="edgeStyle=orthogonalEdgeStyle;rounded=0;orthogonalLoop=1;jettySize=auto;html=1;entryX=0.5;entryY=0;entryDx=0;entryDy=0;" edge="1" parent="WIyWlLk6GJQsqaUBKTNV-1" source="YqYcUAopvHvmNUxCHAHt-26" target="YqYcUAopvHvmNUxCHAHt-28">
          <mxGeometry relative="1" as="geometry" />
        </mxCell>
        <mxCell id="YqYcUAopvHvmNUxCHAHt-26" value="审核岗" style="rounded=1;whiteSpace=wrap;html=1;fontSize=12;glass=0;strokeWidth=1;shadow=0;" vertex="1" parent="WIyWlLk6GJQsqaUBKTNV-1">
          <mxGeometry x="1090" y="190" width="120" height="30" as="geometry" />
        </mxCell>
        <mxCell id="YqYcUAopvHvmNUxCHAHt-27" style="edgeStyle=orthogonalEdgeStyle;rounded=0;orthogonalLoop=1;jettySize=auto;html=1;entryX=0.5;entryY=0;entryDx=0;entryDy=0;" edge="1" parent="WIyWlLk6GJQsqaUBKTNV-1" source="YqYcUAopvHvmNUxCHAHt-28" target="YqYcUAopvHvmNUxCHAHt-30">
          <mxGeometry relative="1" as="geometry" />
        </mxCell>
        <mxCell id="YqYcUAopvHvmNUxCHAHt-28" value="全单录入岗1" style="rounded=1;whiteSpace=wrap;html=1;fontSize=12;glass=0;strokeWidth=1;shadow=0;" vertex="1" parent="WIyWlLk6GJQsqaUBKTNV-1">
          <mxGeometry x="1090" y="260" width="120" height="40" as="geometry" />
        </mxCell>
        <mxCell id="YqYcUAopvHvmNUxCHAHt-29" style="edgeStyle=orthogonalEdgeStyle;rounded=0;orthogonalLoop=1;jettySize=auto;html=1;" edge="1" parent="WIyWlLk6GJQsqaUBKTNV-1" source="YqYcUAopvHvmNUxCHAHt-30">
          <mxGeometry relative="1" as="geometry">
            <mxPoint x="1150" y="390" as="targetPoint" />
          </mxGeometry>
        </mxCell>
        <mxCell id="YqYcUAopvHvmNUxCHAHt-30" value="全单录入岗2" style="rounded=1;whiteSpace=wrap;html=1;fontSize=12;glass=0;strokeWidth=1;shadow=0;" vertex="1" parent="WIyWlLk6GJQsqaUBKTNV-1">
          <mxGeometry x="1090" y="323" width="120" height="40" as="geometry" />
        </mxCell>
        <mxCell id="YqYcUAopvHvmNUxCHAHt-31" value="中心授权岗" style="rounded=1;whiteSpace=wrap;html=1;fontSize=12;glass=0;strokeWidth=1;shadow=0;" vertex="1" parent="WIyWlLk6GJQsqaUBKTNV-1">
          <mxGeometry x="1090" y="490" width="120" height="40" as="geometry" />
        </mxCell>
        <mxCell id="YqYcUAopvHvmNUxCHAHt-32" style="edgeStyle=orthogonalEdgeStyle;rounded=0;orthogonalLoop=1;jettySize=auto;html=1;entryX=0.5;entryY=0;entryDx=0;entryDy=0;" edge="1" parent="WIyWlLk6GJQsqaUBKTNV-1" source="YqYcUAopvHvmNUxCHAHt-34" target="YqYcUAopvHvmNUxCHAHt-31">
          <mxGeometry relative="1" as="geometry" />
        </mxCell>
        <mxCell id="YqYcUAopvHvmNUxCHAHt-33" style="edgeStyle=orthogonalEdgeStyle;rounded=0;orthogonalLoop=1;jettySize=auto;html=1;entryX=0;entryY=0.5;entryDx=0;entryDy=0;" edge="1" parent="WIyWlLk6GJQsqaUBKTNV-1" source="YqYcUAopvHvmNUxCHAHt-34" target="YqYcUAopvHvmNUxCHAHt-37">
          <mxGeometry relative="1" as="geometry" />
        </mxCell>
        <mxCell id="YqYcUAopvHvmNUxCHAHt-34" value="岗1、2信息是否一致" style="rhombus;whiteSpace=wrap;html=1;" vertex="1" parent="WIyWlLk6GJQsqaUBKTNV-1">
          <mxGeometry x="1050" y="393" width="200" height="50" as="geometry" />
        </mxCell>
        <mxCell id="YqYcUAopvHvmNUxCHAHt-35" value="是" style="text;html=1;align=center;verticalAlign=middle;resizable=0;points=[];autosize=1;" vertex="1" parent="WIyWlLk6GJQsqaUBKTNV-1">
          <mxGeometry x="1139" y="462" width="30" height="20" as="geometry" />
        </mxCell>
        <mxCell id="YqYcUAopvHvmNUxCHAHt-36" style="edgeStyle=orthogonalEdgeStyle;rounded=0;orthogonalLoop=1;jettySize=auto;html=1;exitX=0.5;exitY=1;exitDx=0;exitDy=0;entryX=1;entryY=0.5;entryDx=0;entryDy=0;" edge="1" parent="WIyWlLk6GJQsqaUBKTNV-1" source="YqYcUAopvHvmNUxCHAHt-37" target="YqYcUAopvHvmNUxCHAHt-31">
          <mxGeometry relative="1" as="geometry">
            <mxPoint x="1230" y="520" as="targetPoint" />
          </mxGeometry>
        </mxCell>
        <mxCell id="YqYcUAopvHvmNUxCHAHt-37" value="补录岗" style="rounded=1;whiteSpace=wrap;html=1;fontSize=12;glass=0;strokeWidth=1;shadow=0;" vertex="1" parent="WIyWlLk6GJQsqaUBKTNV-1">
          <mxGeometry x="1320" y="398" width="120" height="40" as="geometry" />
        </mxCell>
        <mxCell id="YqYcUAopvHvmNUxCHAHt-38" value="否" style="text;html=1;align=center;verticalAlign=middle;resizable=0;points=[];autosize=1;" vertex="1" parent="WIyWlLk6GJQsqaUBKTNV-1">
          <mxGeometry x="1267" y="411" width="30" height="20" as="geometry" />
        </mxCell>
        <mxCell id="YqYcUAopvHvmNUxCHAHt-39" style="edgeStyle=orthogonalEdgeStyle;rounded=0;orthogonalLoop=1;jettySize=auto;html=1;exitX=0.5;exitY=1;exitDx=0;exitDy=0;entryX=0.5;entryY=0;entryDx=0;entryDy=0;" edge="1" parent="WIyWlLk6GJQsqaUBKTNV-1" source="YqYcUAopvHvmNUxCHAHt-40" target="YqYcUAopvHvmNUxCHAHt-43">
          <mxGeometry relative="1" as="geometry" />
        </mxCell>
        <mxCell id="YqYcUAopvHvmNUxCHAHt-40" value="上传影像平台" style="rounded=1;whiteSpace=wrap;html=1;fontSize=12;glass=0;strokeWidth=1;shadow=0;" vertex="1" parent="WIyWlLk6GJQsqaUBKTNV-1">
          <mxGeometry x="160" y="461" width="120" height="40" as="geometry" />
        </mxCell>
        <mxCell id="YqYcUAopvHvmNUxCHAHt-41" style="edgeStyle=orthogonalEdgeStyle;rounded=0;orthogonalLoop=1;jettySize=auto;html=1;exitX=0.5;exitY=1;exitDx=0;exitDy=0;entryX=0.5;entryY=0;entryDx=0;entryDy=0;" edge="1" parent="WIyWlLk6GJQsqaUBKTNV-1" source="YqYcUAopvHvmNUxCHAHt-43" target="YqYcUAopvHvmNUxCHAHt-46">
          <mxGeometry relative="1" as="geometry" />
        </mxCell>
        <mxCell id="YqYcUAopvHvmNUxCHAHt-42" style="edgeStyle=orthogonalEdgeStyle;rounded=0;orthogonalLoop=1;jettySize=auto;html=1;entryX=0;entryY=0.5;entryDx=0;entryDy=0;" edge="1" parent="WIyWlLk6GJQsqaUBKTNV-1" source="YqYcUAopvHvmNUxCHAHt-43" target="YqYcUAopvHvmNUxCHAHt-10">
          <mxGeometry relative="1" as="geometry">
            <Array as="points">
              <mxPoint x="70" y="591" />
              <mxPoint x="70" y="401" />
            </Array>
          </mxGeometry>
        </mxCell>
        <mxCell id="YqYcUAopvHvmNUxCHAHt-43" value="集中作业中心审核" style="rhombus;whiteSpace=wrap;html=1;" vertex="1" parent="WIyWlLk6GJQsqaUBKTNV-1">
          <mxGeometry x="165" y="551" width="110" height="80" as="geometry" />
        </mxCell>
        <mxCell id="YqYcUAopvHvmNUxCHAHt-44" value="对私开户成功" style="rounded=1;whiteSpace=wrap;html=1;fontSize=12;glass=0;strokeWidth=1;shadow=0;" vertex="1" parent="WIyWlLk6GJQsqaUBKTNV-1">
          <mxGeometry x="160" y="771" width="120" height="40" as="geometry" />
        </mxCell>
        <mxCell id="YqYcUAopvHvmNUxCHAHt-45" style="edgeStyle=orthogonalEdgeStyle;rounded=0;orthogonalLoop=1;jettySize=auto;html=1;entryX=0.5;entryY=0;entryDx=0;entryDy=0;" edge="1" parent="WIyWlLk6GJQsqaUBKTNV-1" source="YqYcUAopvHvmNUxCHAHt-46" target="YqYcUAopvHvmNUxCHAHt-44">
          <mxGeometry relative="1" as="geometry" />
        </mxCell>
        <mxCell id="YqYcUAopvHvmNUxCHAHt-46" value="客户确认凭证信息并签名" style="rounded=1;whiteSpace=wrap;html=1;fontSize=12;glass=0;strokeWidth=1;shadow=0;" vertex="1" parent="WIyWlLk6GJQsqaUBKTNV-1">
          <mxGeometry x="160" y="681" width="120" height="40" as="geometry" />
        </mxCell>
        <mxCell id="YqYcUAopvHvmNUxCHAHt-47" value="审核通过" style="text;html=1;align=center;verticalAlign=middle;resizable=0;points=[];autosize=1;" vertex="1" parent="WIyWlLk6GJQsqaUBKTNV-1">
          <mxGeometry x="195" y="652" width="60" height="20" as="geometry" />
        </mxCell>
        <mxCell id="YqYcUAopvHvmNUxCHAHt-48" value="审核不通过" style="text;html=1;align=center;verticalAlign=middle;resizable=0;points=[];autosize=1;" vertex="1" parent="WIyWlLk6GJQsqaUBKTNV-1">
          <mxGeometry x="77" y="585" width="80" height="20" as="geometry" />
        </mxCell>
        <mxCell id="YqYcUAopvHvmNUxCHAHt-49" style="edgeStyle=orthogonalEdgeStyle;rounded=0;orthogonalLoop=1;jettySize=auto;html=1;entryX=1;entryY=0.5;entryDx=0;entryDy=0;" edge="1" parent="WIyWlLk6GJQsqaUBKTNV-1" source="YqYcUAopvHvmNUxCHAHt-50" target="YqYcUAopvHvmNUxCHAHt-10">
          <mxGeometry relative="1" as="geometry">
            <mxPoint x="290" y="401" as="targetPoint" />
          </mxGeometry>
        </mxCell>
        <mxCell id="YqYcUAopvHvmNUxCHAHt-50" value="客户信息创建成功" style="rounded=1;whiteSpace=wrap;html=1;fontSize=12;glass=0;strokeWidth=1;shadow=0;" vertex="1" parent="WIyWlLk6GJQsqaUBKTNV-1">
          <mxGeometry x="360" y="381" width="120" height="40" as="geometry" />
        </mxCell>
        <mxCell id="YqYcUAopvHvmNUxCHAHt-51" style="edgeStyle=orthogonalEdgeStyle;rounded=0;orthogonalLoop=1;jettySize=auto;html=1;entryX=1;entryY=0.5;entryDx=0;entryDy=0;" edge="1" parent="WIyWlLk6GJQsqaUBKTNV-1" source="YqYcUAopvHvmNUxCHAHt-52" target="YqYcUAopvHvmNUxCHAHt-50">
          <mxGeometry relative="1" as="geometry">
            <Array as="points">
              <mxPoint x="490" y="401" />
              <mxPoint x="490" y="401" />
            </Array>
          </mxGeometry>
        </mxCell>
        <mxCell id="YqYcUAopvHvmNUxCHAHt-52" value="客户确认凭证信息并签名" style="rounded=1;whiteSpace=wrap;html=1;fontSize=12;glass=0;strokeWidth=1;shadow=0;" vertex="1" parent="WIyWlLk6GJQsqaUBKTNV-1">
          <mxGeometry x="611" y="381" width="120" height="40" as="geometry" />
        </mxCell>
        <mxCell id="YqYcUAopvHvmNUxCHAHt-53" value="" style="html=1;shadow=0;dashed=0;align=center;verticalAlign=middle;shape=mxgraph.arrows2.arrow;dy=0.6;dx=40;notch=0;" vertex="1" parent="WIyWlLk6GJQsqaUBKTNV-1">
          <mxGeometry x="1000" y="300" width="60" height="30" as="geometry" />
        </mxCell>
        <mxCell id="YqYcUAopvHvmNUxCHAHt-54" value="集中作业系统审核、授权流程" style="text;html=1;align=center;verticalAlign=middle;resizable=0;points=[];autosize=1;" vertex="1" parent="WIyWlLk6GJQsqaUBKTNV-1">
          <mxGeometry x="930" y="350" width="170" height="20" as="geometry" />
        </mxCell>
        <mxCell id="YqYcUAopvHvmNUxCHAHt-55" value="涉及系统：柜面系统、ECIF系统、核心系统、集中作业系统、影像平台&lt;br&gt;&lt;br&gt;其他渠道开户：自助机具、网银？" style="whiteSpace=wrap;html=1;aspect=fixed;" vertex="1" parent="WIyWlLk6GJQsqaUBKTNV-1">
          <mxGeometry x="-90" width="150" height="150" as="geometry" />
        </mxCell>
        <mxCell id="YqYcUAopvHvmNUxCHAHt-56" value="" style="endArrow=none;dashed=1;html=1;dashPattern=1 3;strokeWidth=2;entryX=0;entryY=1;entryDx=0;entryDy=0;" edge="1" parent="WIyWlLk6GJQsqaUBKTNV-1" target="YqYcUAopvHvmNUxCHAHt-18">
          <mxGeometry width="50" height="50" relative="1" as="geometry">
            <mxPoint x="540" y="170" as="sourcePoint" />
            <mxPoint x="590" y="120" as="targetPoint" />
          </mxGeometry>
        </mxCell>
        <mxCell id="YqYcUAopvHvmNUxCHAHt-57" value="" style="endArrow=none;dashed=1;html=1;dashPattern=1 3;strokeWidth=2;entryX=0.5;entryY=1;entryDx=0;entryDy=0;exitX=0.5;exitY=0;exitDx=0;exitDy=0;" edge="1" parent="WIyWlLk6GJQsqaUBKTNV-1" source="YqYcUAopvHvmNUxCHAHt-14" target="YqYcUAopvHvmNUxCHAHt-18">
          <mxGeometry width="50" height="50" relative="1" as="geometry">
            <mxPoint x="550" y="180" as="sourcePoint" />
            <mxPoint x="610" y="130" as="targetPoint" />
          </mxGeometry>
        </mxCell>
        <mxCell id="YqYcUAopvHvmNUxCHAHt-58" value="" style="endArrow=none;dashed=1;html=1;dashPattern=1 3;strokeWidth=2;entryX=1;entryY=1;entryDx=0;entryDy=0;exitX=0.5;exitY=0;exitDx=0;exitDy=0;" edge="1" parent="WIyWlLk6GJQsqaUBKTNV-1" source="YqYcUAopvHvmNUxCHAHt-16" target="YqYcUAopvHvmNUxCHAHt-18">
          <mxGeometry width="50" height="50" relative="1" as="geometry">
            <mxPoint x="560" y="190" as="sourcePoint" />
            <mxPoint x="620" y="140" as="targetPoint" />
          </mxGeometry>
        </mxCell>
      </root>
    </mxGraphModel>
  </diagram>
</mxfile>
